<svg width="179" height="62" viewBox="0 0 179 62" fill="none" xmlns="http://www.w3.org/2000/svg">
<rect width="179" height="62" rx="8" fill="#6D1600"/>
<path d="M69.96 38.14C69.04 38.14 68.2133 37.98 67.48 37.66C66.76 37.3267 66.1933 36.8733 65.78 36.3C65.3667 35.7133 65.1533 35.04 65.14 34.28H67.08C67.1467 34.9333 67.4133 35.4867 67.88 35.94C68.36 36.38 69.0533 36.6 69.96 36.6C70.8267 36.6 71.5067 36.3867 72 35.96C72.5067 35.52 72.76 34.96 72.76 34.28C72.76 33.7467 72.6133 33.3133 72.32 32.98C72.0267 32.6467 71.66 32.3933 71.22 32.22C70.78 32.0467 70.1867 31.86 69.44 31.66C68.52 31.42 67.78 31.18 67.22 30.94C66.6733 30.7 66.2 30.3267 65.8 29.82C65.4133 29.3 65.22 28.6067 65.22 27.74C65.22 26.98 65.4133 26.3067 65.8 25.72C66.1867 25.1333 66.7267 24.68 67.42 24.36C68.1267 24.04 68.9333 23.88 69.84 23.88C71.1467 23.88 72.2133 24.2067 73.04 24.86C73.88 25.5133 74.3533 26.38 74.46 27.46H72.46C72.3933 26.9267 72.1133 26.46 71.62 26.06C71.1267 25.6467 70.4733 25.44 69.66 25.44C68.9 25.44 68.28 25.64 67.8 26.04C67.32 26.4267 67.08 26.9733 67.08 27.68C67.08 28.1867 67.22 28.6 67.5 28.92C67.7933 29.24 68.1467 29.4867 68.56 29.66C68.9867 29.82 69.58 30.0067 70.34 30.22C71.26 30.4733 72 30.7267 72.56 30.98C73.12 31.22 73.6 31.6 74 32.12C74.4 32.6267 74.6 33.32 74.6 34.2C74.6 34.88 74.42 35.52 74.06 36.12C73.7 36.72 73.1667 37.2067 72.46 37.58C71.7533 37.9533 70.92 38.14 69.96 38.14ZM87.2783 32.1C87.2783 32.4467 87.2583 32.8133 87.2183 33.2H78.4583C78.5249 34.28 78.8916 35.1267 79.5583 35.74C80.2383 36.34 81.0583 36.64 82.0183 36.64C82.8049 36.64 83.4583 36.46 83.9783 36.1C84.5116 35.7267 84.8849 35.2333 85.0983 34.62H87.0583C86.7649 35.6733 86.1783 36.5333 85.2983 37.2C84.4183 37.8533 83.3249 38.18 82.0183 38.18C80.9783 38.18 80.0449 37.9467 79.2183 37.48C78.4049 37.0133 77.7649 36.3533 77.2983 35.5C76.8316 34.6333 76.5983 33.6333 76.5983 32.5C76.5983 31.3667 76.8249 30.3733 77.2783 29.52C77.7316 28.6667 78.3649 28.0133 79.1783 27.56C80.0049 27.0933 80.9516 26.86 82.0183 26.86C83.0583 26.86 83.9783 27.0867 84.7783 27.54C85.5783 27.9933 86.1916 28.62 86.6183 29.42C87.0583 30.2067 87.2783 31.1 87.2783 32.1ZM85.3983 31.72C85.3983 31.0267 85.2449 30.4333 84.9383 29.94C84.6316 29.4333 84.2116 29.0533 83.6783 28.8C83.1583 28.5333 82.5783 28.4 81.9383 28.4C81.0183 28.4 80.2316 28.6933 79.5783 29.28C78.9383 29.8667 78.5716 30.68 78.4783 31.72H85.3983ZM95.0206 26.84C96.354 26.84 97.434 27.2467 98.2606 28.06C99.0873 28.86 99.5006 30.02 99.5006 31.54V38H97.7006V31.8C97.7006 30.7067 97.4273 29.8733 96.8806 29.3C96.334 28.7133 95.5873 28.42 94.6406 28.42C93.6806 28.42 92.914 28.72 92.3406 29.32C91.7806 29.92 91.5006 30.7933 91.5006 31.94V38H89.6806V27.04H91.5006V28.6C91.8606 28.04 92.3473 27.6067 92.9606 27.3C93.5873 26.9933 94.274 26.84 95.0206 26.84ZM101.794 32.48C101.794 31.36 102.02 30.38 102.474 29.54C102.927 28.6867 103.547 28.0267 104.334 27.56C105.134 27.0933 106.027 26.86 107.014 26.86C107.867 26.86 108.66 27.06 109.394 27.46C110.127 27.8467 110.687 28.36 111.074 29V23.2H112.914V38H111.074V35.94C110.714 36.5933 110.18 37.1333 109.474 37.56C108.767 37.9733 107.94 38.18 106.994 38.18C106.02 38.18 105.134 37.94 104.334 37.46C103.547 36.98 102.927 36.3067 102.474 35.44C102.02 34.5733 101.794 33.5867 101.794 32.48ZM111.074 32.5C111.074 31.6733 110.907 30.9533 110.574 30.34C110.24 29.7267 109.787 29.26 109.214 28.94C108.654 28.6067 108.034 28.44 107.354 28.44C106.674 28.44 106.054 28.6 105.494 28.92C104.934 29.24 104.487 29.7067 104.154 30.32C103.82 30.9333 103.654 31.6533 103.654 32.48C103.654 33.32 103.82 34.0533 104.154 34.68C104.487 35.2933 104.934 35.7667 105.494 36.1C106.054 36.42 106.674 36.58 107.354 36.58C108.034 36.58 108.654 36.42 109.214 36.1C109.787 35.7667 110.24 35.2933 110.574 34.68C110.907 34.0533 111.074 33.3267 111.074 32.5Z" fill="white"/>
</svg>
