<svg width="121" height="24" viewBox="0 0 121 24" fill="none" xmlns="http://www.w3.org/2000/svg">
<path d="M11.7159 2.92705C12.0153 2.00574 13.3187 2.00574 13.618 2.92705L15.1366 7.60081C15.2705 8.01284 15.6545 8.2918 16.0877 8.2918H21.002C21.9707 8.2918 22.3735 9.53141 21.5898 10.1008L17.614 12.9894C17.2635 13.244 17.1169 13.6954 17.2508 14.1074L18.7694 18.7812C19.0687 19.7025 18.0142 20.4686 17.2305 19.8992L13.2548 17.0106C12.9043 16.756 12.4297 16.756 12.0792 17.0106L8.10347 19.8992C7.31976 20.4686 6.26527 19.7025 6.56463 18.7812L8.08322 14.1074C8.2171 13.6954 8.07044 13.244 7.71995 12.9894L3.74421 10.1008C2.9605 9.53141 3.36327 8.2918 4.332 8.2918H9.24628C9.67951 8.2918 10.0635 8.01284 10.1973 7.60081L11.7159 2.92705Z" fill="#FFB31F"/>
<path d="M35.7159 2.92705C36.0153 2.00574 37.3187 2.00574 37.618 2.92705L39.1366 7.60081C39.2705 8.01284 39.6545 8.2918 40.0877 8.2918H45.002C45.9707 8.2918 46.3735 9.53141 45.5898 10.1008L41.614 12.9894C41.2635 13.244 41.1169 13.6954 41.2508 14.1074L42.7694 18.7812C43.0687 19.7025 42.0142 20.4686 41.2305 19.8992L37.2548 17.0106C36.9043 16.756 36.4297 16.756 36.0792 17.0106L32.1035 19.8992C31.3198 20.4686 30.2653 19.7025 30.5646 18.7812L32.0832 14.1074C32.2171 13.6954 32.0704 13.244 31.72 12.9894L27.7442 10.1008C26.9605 9.53141 27.3633 8.2918 28.332 8.2918H33.2463C33.6795 8.2918 34.0635 8.01284 34.1973 7.60081L35.7159 2.92705Z" fill="#FFB31F"/>
<path d="M59.7159 2.92705C60.0153 2.00574 61.3187 2.00574 61.618 2.92705L63.1366 7.60081C63.2705 8.01284 63.6545 8.2918 64.0877 8.2918H69.002C69.9707 8.2918 70.3735 9.53141 69.5898 10.1008L65.614 12.9894C65.2635 13.244 65.1169 13.6954 65.2508 14.1074L66.7694 18.7812C67.0687 19.7025 66.0142 20.4686 65.2305 19.8992L61.2548 17.0106C60.9043 16.756 60.4297 16.756 60.0792 17.0106L56.1035 19.8992C55.3198 20.4686 54.2653 19.7025 54.5646 18.7812L56.0832 14.1074C56.2171 13.6954 56.0704 13.244 55.72 12.9894L51.7442 10.1008C50.9605 9.53141 51.3633 8.2918 52.332 8.2918H57.2463C57.6795 8.2918 58.0635 8.01284 58.1973 7.60081L59.7159 2.92705Z" fill="#FFB31F"/>
<path d="M83.7159 2.92705C84.0153 2.00574 85.3187 2.00574 85.618 2.92705L87.1366 7.60081C87.2705 8.01284 87.6545 8.2918 88.0877 8.2918H93.002C93.9707 8.2918 94.3735 9.53141 93.5898 10.1008L89.614 12.9894C89.2635 13.244 89.1169 13.6954 89.2508 14.1074L90.7694 18.7812C91.0687 19.7025 90.0142 20.4686 89.2305 19.8992L85.2548 17.0106C84.9043 16.756 84.4297 16.756 84.0792 17.0106L80.1035 19.8992C79.3198 20.4686 78.2653 19.7025 78.5646 18.7812L80.0832 14.1074C80.2171 13.6954 80.0704 13.244 79.72 12.9894L75.7442 10.1008C74.9605 9.53141 75.3633 8.2918 76.332 8.2918H81.2463C81.6795 8.2918 82.0635 8.01284 82.1973 7.60081L83.7159 2.92705Z" fill="#FFB31F"/>
<path d="M107.716 2.92705C108.015 2.00574 109.319 2.00574 109.618 2.92705L111.137 7.60081C111.271 8.01284 111.654 8.2918 112.088 8.2918H117.002C117.971 8.2918 118.373 9.53141 117.59 10.1008L113.614 12.9894C113.264 13.244 113.117 13.6954 113.251 14.1074L114.769 18.7812C115.069 19.7025 114.014 20.4686 113.231 19.8992L109.255 17.0106C108.904 16.756 108.43 16.756 108.079 17.0106L104.103 19.8992C103.32 20.4686 102.265 19.7025 102.565 18.7812L104.083 14.1074C104.217 13.6954 104.07 13.244 103.72 12.9894L99.7442 10.1008C98.9605 9.53141 99.3633 8.2918 100.332 8.2918H105.246C105.68 8.2918 106.063 8.01284 106.197 7.60081L107.716 2.92705Z" fill="#D9D9D9"/>
</svg>
